<svg id="Layer_1" data-name="Layer 1" xmlns="http://www.w3.org/2000/svg" viewBox="0 0 1280 1024"><defs><style>.cls-1{fill:#1f214f;}.cls-2{fill:#ec1c24;}</style></defs><title>logo</title><path class="cls-1" d="M703.89,629.62c1.59-19.8-8.82-33.57-23-45.25-18-14.83-38-26.75-58.41-38-25.32-14.06-49.8-29.21-69-51.49q-15-17.44-29.52-35.34c-14.28-17.75-29.66-34.62-41.92-54-19.45-30.72-28.39-64.44-30.1-100.41-.82-17.15,2.77-34.68-2.37-51.4-11.39-37.07-32.86-63.22-68.05-73.84-20.26-7.84-40.28-7.56-56.87-4.28h-1.95c-1,.83,0,.19-1.13.44-2.54.54-4.89,1.34-7.32,2-.46.13-.95.25-1.41.39-2.46.74-4.89,1.52-7.24,2.42-12.38,4.54-20.25,9.59-20.76,10.59-45.16,30.23-60.44,92.26-38.13,137a137.7,137.7,0,0,1,13.42,78.78c-8.77,70.94-46,121-112.3,148.78-12.82,5.38-26.17,9.8-38.34,16.38-49.4,26.74-82.11,66.89-85,124-5.7,112.17,100,184.82,204.32,142.34,99-40.33,118.55-149.71,77-214.39-15-23.33-20.76-50.28-22.92-78.06-3.24-41.71,11.52-79,24.58-117.41,18.94-55.77,85.4-60.69,117.73-19.34,28.35,36.26,57.43,72,87.64,106.75a203.76,203.76,0,0,1,43.74,82.88c2.74,10.31,5.92,20.5,9.22,30.64,5.78,17.78,13.28,34.65,26.22,48.62,18.32,19.81,40.71,28,66.78,20.45,26.32-7.63,39.91-27.25,44.36-53.69C704.7,640.06,703.54,634.81,703.89,629.62ZM283.38,697.74c-.27,59.06-47.66,105.3-107.53,104.92C116.3,802.29,70.5,755.42,71,695.41c.51-57.7,47.63-103.9,105.73-103.66C236.51,592,283.65,638.85,283.38,697.74Zm63.39-359.93c-36.22-.13-63.5-27.61-63.23-63.7.26-35.62,28.42-62.73,64.74-62.34,35.47.38,62.54,27.74,62.47,63.12C410.67,311,383.28,337.93,346.77,337.81Z"/><path class="cls-2" d="M1172.76,572.36c-12.17-6.58-25.52-11-38.34-16.38-66.28-27.82-103.53-77.84-112.3-148.78a137.7,137.7,0,0,1,13.42-78.78c23.82-47.73,4.75-115.18-47.78-142.6h.45A101.44,101.44,0,0,0,960.72,176h0c-.28-.06-.56-.14-.83-.19a1.58,1.58,0,0,0-.29-.25h-.79c-20.86-3.87-40.17-.92-54.56,3.13-.48.13-.94.29-1.42.42a122.94,122.94,0,0,0-23.4,9.3l1.48,0c-23.59,13.39-39.13,35.83-48.19,65.3-5.13,16.72-1.55,34.25-2.36,51.4-1.72,36-10.65,69.69-30.11,100.41-12.26,19.36-27.64,36.23-41.91,54-9.62,11.95-19.5,23.71-29.52,35.34-19.2,22.28-43.68,37.43-69,51.49-20.36,11.3-40.36,23.22-58.41,38-14.2,11.68-24.61,25.45-23,45.25.36,5.19-.81,10.44.8,15.56,4.45,26.44,18,46.06,44.36,53.69,26.08,7.57,48.46-.64,66.79-20.45,12.93-14,20.43-30.84,26.21-48.62,3.3-10.14,6.49-20.33,9.23-30.64a203.52,203.52,0,0,1,43.74-82.88c30.2-34.72,59.28-70.49,87.63-106.75,32.33-41.35,98.79-36.43,117.73,19.34,13.06,38.45,27.83,75.7,24.58,117.41-2.16,27.78-7.92,54.73-22.92,78.06-41.59,64.68-22,174.06,77,214.39,104.28,42.48,210-30.17,204.32-142.34C1254.87,639.25,1222.16,599.1,1172.76,572.36ZM935.47,337.81c-36.51.12-63.9-26.81-64-62.92-.07-35.38,27-62.74,62.47-63.12,36.32-.39,64.48,26.72,64.75,62.34C999,310.2,971.69,337.68,935.47,337.81Zm170.92,464.85c-59.87.38-107.25-45.86-107.53-104.92-.27-58.89,46.87-105.76,106.62-106,58.11-.24,105.23,46,105.73,103.66C1211.74,755.42,1165.94,802.29,1106.39,802.66Z"/></svg>